<?xml version="1.0" encoding="UTF-8" standalone="no"?>
<!-- Created with Inkscape (http://www.inkscape.org/) -->

<svg
   xmlns:dc="http://purl.org/dc/elements/1.1/"
   xmlns:cc="http://creativecommons.org/ns#"
   xmlns:rdf="http://www.w3.org/1999/02/22-rdf-syntax-ns#"
   xmlns:svg="http://www.w3.org/2000/svg"
   xmlns="http://www.w3.org/2000/svg"
   xmlns:xlink="http://www.w3.org/1999/xlink"
   xmlns:sodipodi="http://sodipodi.sourceforge.net/DTD/sodipodi-0.dtd"
   xmlns:inkscape="http://www.inkscape.org/namespaces/inkscape"
   width="2979.9199"
   height="4212.9902"
   id="svg4040"
   version="1.1"
   inkscape:version="0.48.4 r9939"
   sodipodi:docname="one.svg"
   inkscape:export-filename="/home/michi/projects/gtfs-heatmap/posters/one.png"
   inkscape:export-xdpi="90"
   inkscape:export-ydpi="90">
  <defs
     id="defs4042">
    <clipPath
       clipPathUnits="userSpaceOnUse"
       id="clipPath3909">
      <rect
         y="-3160.6277"
         x="142"
         height="4212.9902"
         width="2979.9199"
         id="rect3911"
         style="fill:#191919;fill-opacity:1;fill-rule:nonzero;stroke:none" />
    </clipPath>
  </defs>
  <sodipodi:namedview
     id="base"
     pagecolor="#ffffff"
     bordercolor="#666666"
     borderopacity="1.0"
     inkscape:pageopacity="0.0"
     inkscape:pageshadow="2"
     inkscape:zoom="0.21034701"
     inkscape:cx="1899.3069"
     inkscape:cy="457.21351"
     inkscape:document-units="px"
     inkscape:current-layer="g3280"
     showgrid="false"
     inkscape:window-width="1366"
     inkscape:window-height="744"
     inkscape:window-x="0"
     inkscape:window-y="24"
     inkscape:window-maximized="1"
     inkscape:snap-global="false"
     showguides="false"
     inkscape:guide-bbox="true">
    <inkscape:grid
       type="xygrid"
       id="grid3872"
       empspacing="5"
       visible="true"
       enabled="true"
       snapvisiblegridlinesonly="true" />
    <sodipodi:guide
       orientation="0,1"
       position="2654.0959,71.485678"
       id="guide3225" />
    <sodipodi:guide
       orientation="0,1"
       position="2679.9347,127.98633"
       id="guide3305" />
    <sodipodi:guide
       orientation="0,1"
       position="2480,154"
       id="guide3229" />
    <sodipodi:guide
       orientation="1,0"
       position="2822.0969,200.47199"
       id="guide3841" />
    <sodipodi:guide
       orientation="1,0"
       position="2902.1972,120.3717"
       id="guide3843" />
  </sodipodi:namedview>
  <metadata
     id="metadata4045">
    <rdf:RDF>
      <cc:Work
         rdf:about="">
        <dc:format>image/svg+xml</dc:format>
        <dc:type
           rdf:resource="http://purl.org/dc/dcmitype/StillImage" />
        <dc:title></dc:title>
      </cc:Work>
    </rdf:RDF>
  </metadata>
  <g
     inkscape:groupmode="layer"
     id="layer5"
     inkscape:label="Layer#2"
     style="display:inline">
    <rect
       style="fill:#191919;fill-opacity:1;fill-rule:nonzero;stroke:none;display:inline"
       id="rect2985"
       width="2979.9199"
       height="4212.9902"
       x="0"
       y="0" />
  </g>
  <g
     style="display:inline"
     transform="translate(0,3160.6277)"
     id="g3280"
     inkscape:groupmode="layer"
     inkscape:label="Layer 1 copy">
    <rect
       id="rect3282"
       height="57.036999"
       width="114.25941"
       y="924.24939"
       x="2663.7075"
       style="fill:#ffffff" />
    <rect
       id="rect3284"
       height="57.036999"
       width="114.25941"
       x="2663.7075"
       y="867.02686"
       style="fill:#1a2929" />
    <g
       transform="matrix(0.80617668,0,0,0.80617668,2663.7077,867.02707)"
       id="g3286">
      <path
         id="path3288"
         d="m 34.618,62.952 c 0,3.307 0.114,6.043 0.229,8.323 h -6.1 l -0.343,-4.161 h -0.171 c -1.197,1.938 -3.934,4.788 -8.95,4.788 -5.016,0 -9.634,-3.022 -9.634,-12.085 V 43.512 h 7.012 V 58.62 c 0,4.617 1.482,7.582 5.188,7.582 2.851,0 4.675,-1.938 5.359,-3.763 0.284,-0.57 0.398,-1.368 0.398,-2.166 V 43.512 h 7.012 v 19.44 z"
         inkscape:connector-curvature="0"
         style="fill:#ffffff" />
      <path
         id="path3290"
         d="m 42.196,30.8 h 7.012 V 71.275 H 42.196 V 30.8 z"
         inkscape:connector-curvature="0"
         style="fill:#ffffff" />
      <path
         id="path3292"
         d="m 56.843,51.779 c 0,-3.192 -0.114,-5.872 -0.229,-8.267 H 62.6 l 0.342,4.104 h 0.171 c 1.312,-2.166 3.819,-4.731 8.551,-4.731 3.648,0 6.499,2.053 7.696,5.131 h 0.114 c 0.969,-1.539 2.109,-2.68 3.363,-3.478 1.596,-1.083 3.363,-1.653 5.7,-1.653 4.561,0 9.235,3.136 9.235,12.028 V 71.274 H 90.931 V 55.94 c 0,-4.617 -1.597,-7.354 -4.96,-7.354 -2.394,0 -4.161,1.71 -4.902,3.705 -0.228,0.627 -0.342,1.539 -0.342,2.337 V 71.274 H 73.886 V 55.199 c 0,-3.876 -1.539,-6.612 -4.789,-6.612 -2.622,0 -4.39,2.052 -5.073,3.934 -0.229,0.741 -0.342,1.539 -0.342,2.337 V 71.276 H 56.841 V 51.779 z"
         inkscape:connector-curvature="0"
         style="fill:#ffffff" />
    </g>
    <g
       transform="matrix(0.80617668,0,0,0.80617668,2663.7077,867.02707)"
       id="g3294">
      <path
         id="path3296"
         d="m 90.647,112.786 c -1.428,1.326 -3.009,2.754 -5.049,2.754 -2.091,0 -3.06,-1.938 -3.162,-3.773 -2.396,2.192 -4.691,3.773 -7.853,3.773 -3.264,0 -5.508,-2.243 -5.508,-4.946 0.204,-4.079 2.295,-4.845 13.31,-8.618 V 98.61 c 0,-2.856 -1.683,-4.386 -4.946,-4.386 -2.244,0 -3.773,1.274 -3.876,3.569 0,1.428 -1.632,2.142 -2.856,2.142 -0.765,0 -0.918,-0.662 -0.918,-1.02 0,-2.703 2.295,-3.978 5.865,-5.813 1.785,-0.918 2.652,-1.632 4.59,-1.632 2.295,0 6.222,1.479 6.222,4.283 v 14.126 c 0,2.091 0.714,2.906 1.836,2.906 0.662,0 1.428,-0.306 1.887,-0.866 l 0.458,0.867 z m -8.261,-9.332 c -2.601,1.021 -9.229,2.193 -9.229,6.018 0,1.989 1.632,3.672 3.62,3.672 2.396,0 3.927,-1.479 5.609,-2.958 v -6.732 z"
         inkscape:connector-curvature="0"
         style="fill:#1a2929" />
      <path
         id="path3298"
         d="m 101.562,123.853 c 0,1.224 1.275,1.224 2.396,1.224 h 2.295 v 1.326 c -2.192,-0.051 -4.334,-0.103 -6.527,-0.103 -2.091,0 -4.232,0.052 -6.323,0.103 v -1.326 h 1.938 c 1.888,0 2.143,-0.867 2.143,-1.632 V 99.273 c 0,-3.876 -1.53,-3.672 -3.009,-4.386 v -0.766 c 1.988,-0.918 3.978,-1.887 6.018,-2.753 0.152,-0.052 0.356,-0.204 0.51,-0.204 0.204,0 0.561,0 0.561,0.459 v 3.62 c 1.989,-1.784 4.641,-3.773 7.7,-3.773 5.712,0 9.383,5.508 9.383,10.862 0,6.986 -5.507,13.207 -12.544,13.207 -1.377,0 -3.315,-0.407 -4.539,-0.969 v 9.283 z m 4.54,-29.017 c -1.684,0 -3.57,0.97 -4.539,1.684 v 13.87 c 0.663,1.224 2.295,3.519 5.457,3.519 4.946,0 7.547,-5.1 7.547,-9.484 -10e-4,-4.897 -2.959,-9.589 -8.465,-9.589 z"
         inkscape:connector-curvature="0"
         style="fill:#1a2929" />
      <path
         id="path3300"
         d="m 122.423,113.449 h 0.969 c 1.428,0 2.448,0 2.448,-1.683 V 97.947 c 0,-2.244 -0.766,-2.55 -2.652,-3.57 v -0.815 c 2.397,-0.714 5.253,-1.683 5.457,-1.836 0.356,-0.204 0.663,-0.255 0.918,-0.255 0.255,0 0.356,0.306 0.356,0.714 v 19.582 c 0,1.683 1.122,1.683 2.55,1.683 h 0.867 v 1.326 c -1.734,0 -3.519,-0.102 -5.354,-0.102 -1.835,0 -3.672,0.051 -5.559,0.102 v -1.327 z m 5.456,-29.832 c -1.325,0 -2.498,-1.224 -2.498,-2.55 0,-1.274 1.224,-2.447 2.498,-2.447 1.326,0 2.499,1.071 2.499,2.447 0,1.377 -1.122,2.55 -2.499,2.55 z"
         inkscape:connector-curvature="0"
         style="fill:#1a2929" />
    </g>
    <g
       transform="matrix(2.652105,0,0,2.652105,2412.8687,869.567)"
       id="g3302"
       inkscape:label="Layer 1">
      <g
         transform="matrix(0.733333,0,0,0.738095,-7.88725e-5,11)"
         id="g3304">
        <g
           transform="matrix(0.993773,0,0,0.99367,-177.693,6.25128e-7)"
           id="g3306"
           inkscape:export-filename="/mnt/hgfs/Bov/Documents/Work/2007/cc/identity/srr buttons/big/by.png"
           inkscape:export-xdpi="300.23013"
           inkscape:export-ydpi="300.23013">
          <path
             id="path3308"
             nodetypes="ccccccc"
             d="m 181.96579,0.51074 114.06396,0.20264 c 1.59375,0 3.01758,-0.23633 3.01758,3.18066 l -0.13965,37.56689 -119.82031,0 0,-37.70654 c 0,-1.68505 0.16309,-3.24365 2.87842,-3.24365 z"
             style="fill:#aab2ab"
             inkscape:connector-curvature="0" />
          <path
             d="m 297.29636,0 -116.229,0 c -1.24658,0 -2.26123,1.01416 -2.26123,2.26074 l 0,39.49658 c 0,0.28174 0.229,0.51025 0.51074,0.51025 l 119.73047,0 c 0.28174,0 0.51074,-0.22852 0.51074,-0.51025 l 0,-39.49658 C 299.55807,1.01416 298.54343,0 297.29636,0 z m -116.22901,1.02148 116.229,0 c 0.68408,0 1.24023,0.55566 1.24023,1.23926 0,0 0,15.94824 0,27.44971 l -83.34424,0 c -3.04492,5.50586 -8.91113,9.24414 -15.64355,9.24414 -6.73535,0 -12.6001,-3.73486 -15.64355,-9.24414 l -4.07764,0 c 0,-11.50146 0,-27.44971 0,-27.44971 1e-5,-0.68359 0.55616,-1.23926 1.23975,-1.23926 z"
             id="path3310"
             inkscape:connector-curvature="0" />
          <g
             enable-background="new    "
             id="g3312">
            <path
               d="m 253.07761,32.95605 c 0.31738,0 0.60742,0.02832 0.87012,0.08398 0.26172,0.05566 0.48535,0.14746 0.67285,0.27539 0.18652,0.12695 0.33203,0.29688 0.43457,0.50781 0.10254,0.21191 0.1543,0.47266 0.1543,0.78418 0,0.33594 -0.0762,0.61523 -0.22949,0.83887 -0.15234,0.22461 -0.37891,0.40723 -0.67773,0.55078 0.41211,0.11816 0.71973,0.3252 0.92285,0.62109 0.20312,0.29589 0.30469,0.65234 0.30469,1.06934 0,0.33594 -0.0654,0.62695 -0.19629,0.87305 -0.13086,0.24512 -0.30762,0.44629 -0.52832,0.60156 -0.22168,0.15625 -0.47461,0.27148 -0.75781,0.3457 -0.28418,0.0752 -0.5752,0.1123 -0.875,0.1123 l -3.23635,0 0,-6.66406 3.14161,0 0,10e-6 z m -0.1875,2.69532 c 0.26172,0 0.47656,-0.0625 0.64551,-0.18652 0.16797,-0.12402 0.25195,-0.3252 0.25195,-0.60449 0,-0.15527 -0.0283,-0.2832 -0.084,-0.38184 -0.0566,-0.09961 -0.13086,-0.17676 -0.22461,-0.2334 -0.0937,-0.05566 -0.20117,-0.09473 -0.32227,-0.11621 -0.1211,-0.02148 -0.24805,-0.03223 -0.37793,-0.03223 l -1.37402,0 0,1.55469 1.48535,0 z m 0.0859,2.82812 c 0.14355,0 0.28027,-0.01367 0.41113,-0.04199 0.13086,-0.02832 0.24609,-0.0752 0.34668,-0.13965 0.0996,-0.06543 0.17871,-0.1543 0.23828,-0.2666 0.0596,-0.11133 0.0889,-0.25488 0.0889,-0.42871 0,-0.3418 -0.0967,-0.58594 -0.29004,-0.73242 -0.19336,-0.14551 -0.44922,-0.21875 -0.7666,-0.21875 l -1.59961,0 0,1.82812 1.57129,0 z"
               id="path3314"
               style="fill:#ffffff"
               inkscape:connector-curvature="0" />
            <path
               d="m 255.78854,32.95605 1.64355,0 1.56055,2.63184 1.55078,-2.63184 1.63379,0 -2.47363,4.10645 0,2.55762 -1.46875,0 0,-2.59473 -2.44629,-4.06934 z"
               id="path3316"
               style="fill:#ffffff"
               inkscape:connector-curvature="0" />
          </g>
          <g
             id="g3318"
             transform="matrix(0.872921,0,0,0.872921,50.1254,143.214)">
            <path
               id="path3320"
               cx="296.35416"
               ry="22.939548"
               cy="264.3577"
               type="arc"
               rx="22.939548"
               d="m 186.90065,-141.46002 c 0.006,8.68079 -7.02786,15.7215 -15.70808,15.72711 -8.68022,0.006 -15.72206,-7.02734 -15.7271,-15.70807 0,-0.006 0,-0.0123 0,-0.019 -0.005,-8.68079 7.02786,-15.7215 15.70808,-15.72656 8.68135,-0.006 15.72206,7.02734 15.7271,15.70813 0,0.006 0,0.0123 0,0.0184 z"
               style="fill:#ffffff"
               inkscape:connector-curvature="0" />
            <g
               id="g3322"
               transform="translate(-289.616,99.0653)">
              <path
                 id="path3324"
                 d="m 473.57574,-253.32751 c 3.48541,3.48541 5.22839,7.75391 5.22839,12.80219 0,5.04938 -1.71277,9.27203 -5.13831,12.66791 -3.63531,3.5766 -7.93182,5.36432 -12.88947,5.36432 -4.89777,0 -9.11987,-1.77319 -12.66513,-5.31952 -3.54581,-3.54584 -5.31845,-7.78302 -5.31845,-12.71271 0,-4.92859 1.77264,-9.19598 5.31845,-12.80219 3.4552,-3.48651 7.67728,-5.22949 12.66513,-5.22949 5.0483,-10e-6 9.31404,1.74297 12.79939,5.22949 z m -23.11798,2.34484 c -2.94672,2.97638 -4.41953,6.46289 -4.41953,10.46234 0,3.99835 1.45828,7.45526 4.37424,10.37067 2.9165,2.9165 6.38849,4.37421 10.41705,4.37421 4.02856,0 7.53015,-1.47223 10.50653,-4.4184 2.82593,-2.73645 4.23944,-6.17706 4.23944,-10.32648 0,-4.11804 -1.43646,-7.61346 -4.30768,-10.48468 -2.87067,-2.87067 -6.34991,-4.30658 -10.43829,-4.30658 -4.0884,1e-5 -7.54638,1.44318 -10.37176,4.32892 z m 7.75449,8.70319 c -0.45029,-0.98169 -1.1243,-1.47284 -2.02322,-1.47284 -1.58917,0 -2.38345,1.07007 -2.38345,3.20911 0,2.13953 0.79428,3.2085 2.38345,3.2085 1.04938,0 1.79892,-0.52075 2.24866,-1.56451 l 2.20276,1.17297 c -1.04993,1.86548 -2.62509,2.79846 -4.72549,2.79846 -1.6199,0 -2.91763,-0.4967 -3.89206,-1.48901 -0.9761,-0.99341 -1.46274,-2.36273 -1.46274,-4.10852 0,-1.71503 0.50229,-3.07654 1.50748,-4.08502 1.00519,-1.00854 2.25702,-1.51257 3.75781,-1.51257 2.22012,0 3.80981,0.87488 4.77081,2.62286 l -2.38401,1.22057 z m 10.36337,0 c -0.45087,-0.98169 -1.11145,-1.47284 -1.98242,-1.47284 -1.62103,0 -2.43213,1.07007 -2.43213,3.20911 0,2.13953 0.8111,3.2085 2.43213,3.2085 1.05109,0 1.78717,-0.52075 2.20728,-1.56451 l 2.25201,1.17297 c -1.04828,1.86548 -2.62122,2.79846 -4.71771,2.79846 -1.61768,0 -2.9126,-0.4967 -3.88647,-1.48901 -0.97217,-0.99341 -1.45935,-2.36273 -1.45935,-4.10852 0,-1.71503 0.49445,-3.07654 1.48285,-4.08502 0.98785,-1.00854 2.2453,-1.51257 3.7735,-1.51257 2.21619,0 3.80365,0.87488 4.76129,2.62286 l -2.43098,1.22057 z"
                 inkscape:connector-curvature="0" />
            </g>
          </g>
          <g
             id="g3326">
            <circle
               cx="255.55124"
               cy="15.31348"
               r="10.80664"
               id="circle3328"
               sodipodi:cx="255.55124"
               sodipodi:cy="15.31348"
               sodipodi:rx="10.80664"
               sodipodi:ry="10.80664"
               style="fill:#ffffff"
               d="m 266.35788,15.31348 c 0,5.968343 -4.8383,10.80664 -10.80664,10.80664 -5.96834,0 -10.80664,-4.838297 -10.80664,-10.80664 0,-5.9683419 4.8383,-10.8066393 10.80664,-10.8066393 5.96834,0 10.80664,4.8382974 10.80664,10.8066393 z" />
            <g
               id="g3330">
              <path
                 d="m 258.67819,12.18701 c 0,-0.4165 -0.33789,-0.75391 -0.75293,-0.75391 l -4.77344,0 c -0.41504,0 -0.75293,0.3374 -0.75293,0.75391 l 0,4.77295 1.33105,0 0,5.65186 3.61719,0 0,-5.65186 1.33105,0 0,-4.77295 10e-6,0 z"
                 id="path3332"
                 inkscape:connector-curvature="0" />
              <circle
                 cx="255.53854"
                 cy="9.1723604"
                 r="1.63281"
                 id="circle3334"
                 sodipodi:cx="255.53854"
                 sodipodi:cy="9.1723604"
                 sodipodi:rx="1.63281"
                 sodipodi:ry="1.63281"
                 d="m 257.17135,9.1723604 c 0,0.9017756 -0.73103,1.6328096 -1.63281,1.6328096 -0.90177,0 -1.63281,-0.731034 -1.63281,-1.6328096 0,-0.901776 0.73104,-1.63281 1.63281,-1.63281 0.90178,0 1.63281,0.731034 1.63281,1.63281 z" />
            </g>
            <path
               clip-rule="evenodd"
               d="m 255.5239,3.40723 c -3.23242,0 -5.96875,1.12793 -8.20801,3.38379 -2.29785,2.3335 -3.44629,5.0957 -3.44629,8.28467 0,3.18897 1.14844,5.93164 3.44629,8.22656 2.29785,2.29443 5.03418,3.44189 8.20801,3.44189 3.21289,0 5.99805,-1.15625 8.35352,-3.47119 2.21973,-2.19727 3.33008,-4.92969 3.33008,-8.19727 0,-3.26758 -1.12988,-6.02881 -3.3877,-8.28467 -2.25977,-2.25585 -5.02442,-3.38378 -8.2959,-3.38378 z m 0.0293,2.09961 c 2.64844,0 4.89746,0.93408 6.74707,2.80127 1.86914,1.84717 2.80371,4.10303 2.80371,6.76758 0,2.68359 -0.91504,4.91064 -2.74512,6.68018 -1.92871,1.90625 -4.19629,2.85889 -6.80566,2.85889 -2.61035,0 -4.85938,-0.94287 -6.74707,-2.82959 -1.88965,-1.88672 -2.83301,-4.12305 -2.83301,-6.70947 0,-2.58691 0.9541,-4.84229 2.8623,-6.76758 1.83009,-1.8672 4.06934,-2.80128 6.71778,-2.80128 z"
               id="path3336"
               style="fill-rule:evenodd"
               inkscape:connector-curvature="0" />
          </g>
        </g>
      </g>
    </g>
    <rect
       id="rect3338"
       height="114.83031"
       width="114.83031"
       x="2795.1406"
       y="867.00031"
       style="fill:#da1c5c" />
    <g
       transform="matrix(1.0419512,0,0,1.0419512,2795.1404,867.00055)"
       id="g3340">
      <path
         id="path3342"
         d="m 17.031,15.005 c -0.03,-0.076 -0.045,-0.137 -0.045,-0.197 0,-0.213 0.197,-0.411 0.41,-0.411 0.213,0 0.365,0.183 0.426,0.365 l 3.241,9.173 3.027,-9.233 c 0.061,-0.168 0.167,-0.305 0.38,-0.305 h 0.03 c 0.198,0 0.319,0.137 0.381,0.305 l 3.027,9.233 3.255,-9.219 c 0.076,-0.197 0.198,-0.319 0.381,-0.319 0.197,0 0.396,0.198 0.396,0.396 0,0.061 -0.03,0.137 -0.061,0.213 l -3.561,9.873 c -0.075,0.198 -0.197,0.351 -0.41,0.351 h -0.03 c -0.213,0 -0.351,-0.152 -0.411,-0.351 l -3.012,-8.945 -3.013,8.945 c -0.061,0.198 -0.197,0.351 -0.411,0.351 h -0.03 c -0.213,0 -0.334,-0.138 -0.41,-0.351 l -3.56,-9.874 z"
         inkscape:connector-curvature="0"
         style="fill:#ffffff" />
      <path
         id="path3344"
         d="m 34.428,24.711 v -9.858 c 0,-0.213 0.183,-0.396 0.396,-0.396 H 41.7 c 0.198,0 0.365,0.168 0.365,0.365 0,0.198 -0.167,0.365 -0.365,0.365 h -6.48 v 4.184 h 5.796 c 0.198,0 0.365,0.167 0.365,0.365 0,0.197 -0.167,0.365 -0.365,0.365 H 35.22 v 4.274 h 6.557 c 0.198,0 0.365,0.168 0.365,0.365 0,0.198 -0.167,0.365 -0.365,0.365 h -6.952 c -0.215,0.001 -0.397,-0.181 -0.397,-0.394 z"
         inkscape:connector-curvature="0"
         style="fill:#ffffff" />
      <path
         id="path3346"
         d="m 49.191,14.808 c 0,-0.213 0.183,-0.396 0.396,-0.396 h 0.076 c 0.167,0 0.289,0.091 0.396,0.228 l 4.153,6.116 4.153,-6.116 c 0.091,-0.137 0.228,-0.228 0.396,-0.228 h 0.076 c 0.213,0 0.396,0.183 0.396,0.396 v 9.964 c 0,0.213 -0.183,0.396 -0.396,0.396 -0.213,0 -0.396,-0.183 -0.396,-0.396 v -8.914 l -3.91,5.689 c -0.091,0.137 -0.197,0.197 -0.335,0.197 -0.137,0 -0.243,-0.061 -0.334,-0.197 l -3.91,-5.689 v 8.93 c 0,0.213 -0.167,0.38 -0.38,0.38 -0.214,0 -0.381,-0.167 -0.381,-0.38 v -9.98 z"
         inkscape:connector-curvature="0"
         style="fill:#ffffff" />
      <path
         id="path3348"
         d="m 61.734,24.589 4.549,-9.857 c 0.106,-0.229 0.258,-0.381 0.532,-0.381 h 0.03 c 0.273,0 0.426,0.152 0.532,0.381 l 4.533,9.827 c 0.046,0.092 0.062,0.168 0.062,0.243 0,0.198 -0.168,0.365 -0.381,0.365 -0.183,0 -0.319,-0.137 -0.396,-0.304 l -1.247,-2.738 h -6.283 l -1.247,2.753 c -0.076,0.183 -0.198,0.289 -0.381,0.289 -0.197,0 -0.365,-0.151 -0.365,-0.334 0.001,-0.062 0.016,-0.152 0.062,-0.244 z m 7.88,-3.179 -2.799,-6.162 -2.814,6.162 h 5.613 z"
         inkscape:connector-curvature="0"
         style="fill:#ffffff" />
      <path
         id="path3350"
         d="m 74.427,14.792 c 0,-0.213 0.183,-0.396 0.396,-0.396 0.213,0 0.396,0.183 0.396,0.396 v 6.663 l 6.725,-6.937 c 0.061,-0.062 0.151,-0.122 0.273,-0.122 0.198,0 0.396,0.198 0.396,0.396 0,0.106 -0.046,0.198 -0.121,0.273 l -4.062,4.093 4.336,5.31 c 0.076,0.091 0.122,0.167 0.122,0.289 0,0.213 -0.198,0.41 -0.411,0.41 -0.137,0 -0.243,-0.076 -0.305,-0.151 l -4.305,-5.295 -2.647,2.678 v 2.373 c 0,0.213 -0.183,0.396 -0.396,0.396 -0.213,0 -0.396,-0.183 -0.396,-0.396 v -9.98 z"
         inkscape:connector-curvature="0"
         style="fill:#ffffff" />
      <path
         id="path3352"
         d="m 85.31,24.711 v -9.858 c 0,-0.213 0.183,-0.396 0.396,-0.396 h 6.876 c 0.198,0 0.365,0.168 0.365,0.365 0,0.198 -0.167,0.365 -0.365,0.365 h -6.48 v 4.184 h 5.796 c 0.198,0 0.365,0.167 0.365,0.365 0,0.197 -0.167,0.365 -0.365,0.365 h -5.796 v 4.274 h 6.557 c 0.198,0 0.365,0.168 0.365,0.365 0,0.198 -0.167,0.365 -0.365,0.365 H 85.707 C 85.492,25.106 85.31,24.924 85.31,24.711 z"
         inkscape:connector-curvature="0"
         style="fill:#ffffff" />
      <path
         id="path3354"
         d="m 18.965,39.721 c 0,-0.389 0.333,-0.723 0.723,-0.723 h 5.755 c 6.116,0 10.342,4.198 10.342,9.675 v 0.056 c 0,5.477 -4.226,9.73 -10.342,9.73 h -5.755 c -0.39,0 -0.723,-0.334 -0.723,-0.723 V 39.721 z m 6.477,17.404 c 5.421,0 8.841,-3.698 8.841,-8.341 v -0.056 c 0,-4.615 -3.42,-8.396 -8.841,-8.396 H 20.41 v 16.793 h 5.032 z"
         inkscape:connector-curvature="0"
         style="fill:#ffffff" />
      <path
         id="path3356"
         d="m 38.226,57.514 8.312,-18.016 c 0.195,-0.417 0.473,-0.694 0.974,-0.694 h 0.056 c 0.5,0 0.778,0.277 0.973,0.694 l 8.285,17.96 c 0.083,0.167 0.111,0.306 0.111,0.445 0,0.361 -0.307,0.667 -0.695,0.667 -0.334,0 -0.584,-0.25 -0.723,-0.557 l -2.28,-5.004 H 41.757 l -2.28,5.032 c -0.139,0.334 -0.361,0.528 -0.695,0.528 -0.361,0 -0.667,-0.278 -0.667,-0.611 -0.001,-0.11 0.028,-0.277 0.111,-0.444 z m 14.401,-5.811 -5.115,-11.26 -5.144,11.26 h 10.259 z"
         inkscape:connector-curvature="0"
         style="fill:#ffffff" />
      <path
         id="path3358"
         d="M 64.298,40.332 H 58.07 c -0.361,0 -0.668,-0.306 -0.668,-0.667 0,-0.361 0.307,-0.667 0.668,-0.667 h 13.9 c 0.361,0 0.667,0.306 0.667,0.667 0,0.361 -0.306,0.667 -0.667,0.667 h -6.228 v 17.516 c 0,0.389 -0.334,0.723 -0.723,0.723 -0.39,0 -0.723,-0.334 -0.723,-0.723 V 40.332 z"
         inkscape:connector-curvature="0"
         style="fill:#ffffff" />
      <path
         id="path3360"
         d="m 73.19,57.514 8.312,-18.016 c 0.195,-0.417 0.473,-0.694 0.974,-0.694 h 0.056 c 0.5,0 0.778,0.277 0.973,0.694 l 8.285,17.96 c 0.083,0.167 0.111,0.306 0.111,0.445 0,0.361 -0.307,0.667 -0.695,0.667 -0.334,0 -0.584,-0.25 -0.723,-0.557 l -2.28,-5.004 H 76.722 l -2.28,5.032 c -0.139,0.334 -0.361,0.528 -0.695,0.528 -0.361,0 -0.667,-0.278 -0.667,-0.611 -0.001,-0.11 0.027,-0.277 0.11,-0.444 z m 14.402,-5.811 -5.115,-11.26 -5.144,11.26 h 10.259 z"
         inkscape:connector-curvature="0"
         style="fill:#ffffff" />
      <path
         id="path3362"
         d="m 18.965,72.962 c 0,-0.389 0.333,-0.723 0.723,-0.723 0.389,0 0.723,0.334 0.723,0.723 v 17.515 h 10.87 c 0.362,0 0.668,0.307 0.668,0.668 0,0.361 -0.306,0.667 -0.668,0.667 H 19.688 c -0.39,0 -0.723,-0.334 -0.723,-0.723 V 72.962 z"
         inkscape:connector-curvature="0"
         style="fill:#ffffff" />
      <path
         id="path3364"
         d="m 34.195,82.137 v -0.056 c 0,-5.311 3.92,-10.064 9.814,-10.064 5.894,0 9.758,4.698 9.758,10.009 v 0.056 c 0,5.31 -3.92,10.064 -9.813,10.064 -5.894,0 -9.759,-4.7 -9.759,-10.009 z m 18.072,0 v -0.056 c 0,-4.81 -3.503,-8.758 -8.312,-8.758 -4.809,0 -8.257,3.893 -8.257,8.702 v 0.056 c 0,4.81 3.503,8.758 8.312,8.758 4.809,0 8.257,-3.893 8.257,-8.702 z"
         inkscape:connector-curvature="0"
         style="fill:#ffffff" />
      <path
         id="path3366"
         d="M 64.215,91.367 56.291,73.24 c -0.056,-0.111 -0.056,-0.167 -0.056,-0.306 0,-0.334 0.306,-0.695 0.723,-0.695 0.362,0 0.612,0.25 0.751,0.584 l 7.423,17.432 7.451,-17.46 c 0.139,-0.306 0.389,-0.556 0.723,-0.556 0.39,0 0.695,0.334 0.695,0.667 0,0.111 0,0.167 -0.056,0.278 l -7.951,18.183 c -0.167,0.389 -0.417,0.639 -0.862,0.639 h -0.056 c -0.444,0 -0.694,-0.25 -0.861,-0.639 z"
         inkscape:connector-curvature="0"
         style="fill:#ffffff" />
      <path
         id="path3368"
         d="M 78.416,91.089 V 73.073 c 0,-0.39 0.333,-0.723 0.723,-0.723 h 12.566 c 0.361,0 0.667,0.306 0.667,0.667 0,0.361 -0.306,0.667 -0.667,0.667 H 79.861 v 7.646 h 10.593 c 0.361,0 0.667,0.306 0.667,0.668 0,0.361 -0.306,0.667 -0.667,0.667 H 79.861 v 7.812 h 11.982 c 0.361,0 0.667,0.307 0.667,0.668 0,0.361 -0.306,0.667 -0.667,0.667 H 79.139 c -0.39,0 -0.723,-0.334 -0.723,-0.723 z"
         inkscape:connector-curvature="0"
         style="fill:#ffffff" />
    </g>
    <text
       xml:space="preserve"
       style="font-size:34px;font-style:normal;font-variant:normal;font-weight:normal;font-stretch:normal;text-align:start;line-height:125%;letter-spacing:0px;word-spacing:0px;text-anchor:start;fill:#ffffff;fill-opacity:1;stroke:none;font-family:Latin Modern Sans;-inkscape-font-specification:Latin Modern Sans"
       x="74.992004"
       y="760.01056"
       id="text3370"
       sodipodi:linespacing="125%"><tspan
         id="tspan3374"
         sodipodi:role="line"
         x="74.992004"
         y="760.01056"
         style="font-size:34px;font-style:normal;font-variant:normal;font-weight:normal;font-stretch:normal;text-align:start;text-anchor:start;fill:#ffffff;font-family:Latin Modern Sans;-inkscape-font-specification:Latin Modern Sans">Madrid</tspan><tspan
         sodipodi:role="line"
         x="74.992004"
         y="802.51056"
         style="font-size:34px;font-style:normal;font-variant:normal;font-weight:normal;font-stretch:normal;text-align:start;text-anchor:start;fill:#ffffff;font-family:Latin Modern Sans;-inkscape-font-specification:Latin Modern Sans"
         id="tspan3238">Public bus transportation visualization based on the GTFS feed by the </tspan><tspan
         id="tspan3378"
         sodipodi:role="line"
         x="74.992004"
         y="845.01056"
         style="font-size:34px;font-style:normal;font-variant:normal;font-weight:normal;font-stretch:normal;text-align:start;text-anchor:start;fill:#ffffff;font-family:Latin Modern Sans;-inkscape-font-specification:Latin Modern Sans">Empresa Municipal de Transportes. The color intensity of routes represents</tspan><tspan
         sodipodi:role="line"
         x="74.992004"
         y="887.51056"
         style="font-size:34px;font-style:normal;font-variant:normal;font-weight:normal;font-stretch:normal;text-align:start;text-anchor:start;fill:#ffffff;font-family:Latin Modern Sans;-inkscape-font-specification:Latin Modern Sans"
         id="tspan3246">how often they are frequented by transport entities. </tspan><tspan
         id="tspan3382"
         sodipodi:role="line"
         x="74.992004"
         y="930.01056"
         style="font-size:34px;font-style:normal;font-variant:normal;font-weight:normal;font-stretch:normal;text-align:start;text-anchor:start;fill:#ffffff;font-family:Latin Modern Sans;-inkscape-font-specification:Latin Modern Sans" /><tspan
         id="tspan3398"
         sodipodi:role="line"
         x="74.992004"
         y="972.51056"
         style="font-size:34px;font-style:normal;font-variant:normal;font-weight:normal;font-stretch:normal;text-align:start;text-anchor:start;fill:#ffffff;font-family:Latin Modern Sans;-inkscape-font-specification:Latin Modern Sans">Sourcecode and further information via http://ulmapi.de/gtfs-vis.</tspan><tspan
         id="tspan3400"
         sodipodi:role="line"
         x="74.992004"
         y="1015.0106"
         style="font-size:34px;font-style:normal;font-variant:normal;font-weight:normal;font-stretch:normal;text-align:start;text-anchor:start;fill:#ffffff;font-family:Latin Modern Sans;-inkscape-font-specification:Latin Modern Sans" /></text>
    <image
       sodipodi:absref="/home/michi/projects/gtfs-heatmap/posters/../gallery/large/madrid.png"
       xlink:href="../gallery/large/madrid.png"
       width="2778.5093"
       height="2778.5093"
       id="image3408"
       x="65.983643"
       y="-2517.2141" />
    <text
       xml:space="preserve"
       style="font-size:37px;font-style:normal;font-variant:normal;font-weight:normal;font-stretch:normal;text-align:start;line-height:125%;letter-spacing:0px;word-spacing:0px;text-anchor:start;fill:#ffffff;fill-opacity:1;stroke:none;display:inline;font-family:LMSans10;-inkscape-font-specification:LMSans10"
       x="747.86102"
       y="268.33154"
       id="text3410"
       sodipodi:linespacing="125%"><tspan
         id="tspan3414"
         sodipodi:role="line"
         x="747.86102"
         y="268.33154"
         style="font-size:32px;font-style:normal;font-variant:normal;font-weight:normal;font-stretch:normal;text-align:center;text-anchor:middle;fill:#ffffff;font-family:Latin Modern Sans;-inkscape-font-specification:Latin Modern Sans" /></text>
    <text
       transform="translate(0,-3160.6277)"
       sodipodi:linespacing="125%"
       id="text3430"
       y="3993.7871"
       x="1069.1455"
       style="font-size:20px;font-style:normal;font-variant:normal;font-weight:bold;font-stretch:normal;line-height:125%;letter-spacing:0px;word-spacing:0px;fill:#000000;fill-opacity:1;stroke:none;font-family:DejaVu Sans;-inkscape-font-specification:Sans Bold"
       xml:space="preserve"><tspan
         y="3993.7871"
         x="1069.1455"
         id="tspan3432"
         sodipodi:role="line" /></text>
    <text
       xml:space="preserve"
       style="font-size:23.12047386px;font-style:normal;font-variant:normal;font-weight:normal;font-stretch:normal;text-align:start;line-height:125%;letter-spacing:0px;word-spacing:0px;text-anchor:start;fill:#ffffff;fill-opacity:1;stroke:none;display:inline;font-family:DejaVu Sans;-inkscape-font-specification:DejaVu Sans"
       x="807.31921"
       y="855.47321"
       id="text3434"
       sodipodi:linespacing="125%"><tspan
         id="tspan3436"
         sodipodi:role="line"
         x="807.31921"
         y="855.47321"
         style="font-size:27px;font-style:normal;font-variant:normal;font-weight:normal;font-stretch:normal;text-align:start;text-anchor:start;fill:#ffffff;font-family:DejaVu Sans;-inkscape-font-specification:DejaVu Sans" /></text>
    <text
       xml:space="preserve"
       style="font-size:29.23025513px;font-style:normal;font-variant:normal;font-weight:normal;font-stretch:normal;text-align:justify;line-height:125%;letter-spacing:0px;word-spacing:0px;writing-mode:lr-tb;text-anchor:start;fill:#ffffff;fill-opacity:1;stroke:none;display:inline;font-family:LMSans10;-inkscape-font-specification:LMSans10"
       x="2386.1306"
       y="933.68671"
       id="text3334"
       sodipodi:linespacing="125%"><tspan
         sodipodi:role="line"
         x="2386.1306"
         y="933.68671"
         id="tspan3336"
         style="font-size:34px;font-style:normal;font-variant:normal;font-weight:normal;font-stretch:normal;text-align:end;line-height:125%;writing-mode:lr-tb;text-anchor:end;fill:#ffffff;font-family:Latin Modern Sans;-inkscape-font-specification:Latin Modern Sans">Created by Michael Müller·http://micha.elmueller.net</tspan><tspan
         id="tspan3338"
         sodipodi:role="line"
         x="2397.4861"
         y="976.18671"
         style="font-size:34px;font-style:normal;font-variant:normal;font-weight:normal;font-stretch:normal;text-align:end;line-height:125%;writing-mode:lr-tb;text-anchor:end;fill:#ffffff;font-family:Latin Modern Sans;-inkscape-font-specification:Latin Modern Sans">License: Creative Commons Attribution 4.0 Unported </tspan></text>
  </g>
</svg>
